<?xml version="1.0" standalone="no"?>
<!DOCTYPE svg PUBLIC "-//W3C//DTD SVG 20010904//EN"
 "http://www.w3.org/TR/2001/REC-SVG-20010904/DTD/svg10.dtd">
<svg version="1.0" xmlns="http://www.w3.org/2000/svg"
 width="38.000000pt" height="37.000000pt" viewBox="0 0 38.000000 37.000000"
 preserveAspectRatio="xMidYMid meet">

<g transform="translate(0.000000,37.000000) scale(0.100000,-0.100000)"
fill="#000000" stroke="none">
<path d="M31 346 c-8 -9 -11 -63 -9 -167 l3 -154 160 0 160 0 3 154 c2 104 -1
158 -9 167 -17 20 -291 20 -308 0z m87 -69 c4 -20 -25 -34 -40 -19 -15 15 -1
44 19 40 10 -2 19 -11 21 -21z m154 -64 c13 -12 18 -31 18 -75 0 -51 -2 -58
-19 -58 -17 0 -20 8 -23 53 -3 48 -5 52 -28 52 -23 0 -25 -4 -28 -52 -3 -45
-6 -53 -23 -53 -17 0 -19 7 -19 71 0 71 0 71 25 67 14 -3 28 -1 31 3 9 15 46
10 66 -8z m-162 -63 c0 -56 -3 -70 -15 -70 -12 0 -15 14 -15 70 0 56 3 70 15
70 12 0 15 -14 15 -70z"/>
</g>
</svg>
