<?xml version="1.0" standalone="no"?>
<!DOCTYPE svg PUBLIC "-//W3C//DTD SVG 20010904//EN"
 "http://www.w3.org/TR/2001/REC-SVG-20010904/DTD/svg10.dtd">
<svg version="1.0" xmlns="http://www.w3.org/2000/svg"
 width="38.000000pt" height="37.000000pt" viewBox="0 0 38.000000 37.000000"
 preserveAspectRatio="xMidYMid meet">

<g transform="translate(0.000000,37.000000) scale(0.100000,-0.100000)"
fill="#000000" stroke="none">
<path d="M117 356 c-50 -19 -76 -42 -98 -91 -41 -88 -11 -195 65 -240 52 -30
56 -31 56 -5 0 13 -7 20 -20 20 -23 0 -70 42 -70 61 0 7 10 3 23 -9 23 -22 61
-29 71 -14 3 4 -10 16 -28 26 -51 27 -74 98 -42 125 8 7 12 21 9 31 -6 23 18
36 44 25 24 -10 114 -12 120 -3 2 5 12 8 22 8 14 0 21 -10 25 -37 4 -21 9 -52
12 -70 5 -25 1 -37 -20 -57 -14 -14 -34 -26 -44 -26 -18 0 -19 -4 -10 -47 6
-27 12 -49 13 -51 7 -7 61 28 86 55 77 83 59 223 -36 278 -53 32 -127 40 -178
21z"/>
</g>
</svg>
