<?xml version="1.0" standalone="no"?>
<!DOCTYPE svg PUBLIC "-//W3C//DTD SVG 20010904//EN"
 "http://www.w3.org/TR/2001/REC-SVG-20010904/DTD/svg10.dtd">
<svg version="1.0" xmlns="http://www.w3.org/2000/svg"
 width="38.000000pt" height="37.000000pt" viewBox="0 0 38.000000 37.000000"
 preserveAspectRatio="xMidYMid meet">

<g transform="translate(0.000000,37.000000) scale(0.100000,-0.100000)"
fill="#000000" stroke="none">
<path d="M21 306 c-8 -9 -11 -55 -9 -137 l3 -124 153 -3 c94 -1 160 2 172 8
18 10 20 21 20 128 0 79 -4 122 -12 130 -18 18 -312 17 -327 -2z m289 -20 c0
-2 -29 -22 -65 -45 l-65 -40 -65 40 c-36 23 -65 43 -65 45 0 2 58 4 130 4 72
0 130 -2 130 -4z m-131 -116 c6 0 42 20 81 45 l70 45 0 -90 0 -90 -38 0 c-22
0 -87 -3 -145 -7 l-107 -6 0 97 0 98 64 -46 c36 -25 69 -46 75 -46z"/>
</g>
</svg>
